<svg height="503pt" viewBox="0 0 503 503.76151" width="503pt" xmlns="http://www.w3.org/2000/svg"><path d="m95.839844 330.820312h156.203125v172.519532h-156.203125zm0 0" fill="#e64c3c"/><path d="m321.378906 160.558594c.085938-1.476563.085938-15.96875.085938-17.355469-1.21875-80.269531-67.257813-144.363281-147.523438-143.1875-80.269531-1.175781-146.304687 62.917969-147.527344 143.1875 0 1.386719 0 15.878906.085938 17.355469zm0 0" fill="#af8066"/><path d="m304.195312 156.21875h17.964844c9.554688.070312 17.285156 7.800781 17.355469 17.355469-.027344 9.574219-7.78125 17.328125-17.355469 17.355469h-295.746094c-9.574218-.027344-17.328124-7.78125-17.355468-17.355469.070312-9.554688 7.800781-17.285157 17.355468-17.355469zm0 0" fill="#f09372"/><path d="m199.972656 284.046875v56.320313l-2.339844 3.035156-23.691406 30.546875-23.691406-30.546875-2.34375-3.035156v-56.320313zm0 0" fill="#fdd7ad"/><path d="m61.125 339.238281v164.101563h-43.386719c-9.574219-.03125-17.328125-7.785156-17.359375-17.359375v-52.066407c-.03125-40.730468 23.710938-77.730468 60.746094-94.675781zm0 0" fill="#e64c3c"/><path d="m324.15625 368.136719-20.480469 135.203125h-16.921875v-164.101563c14.492188 6.675781 27.28125 16.558594 37.402344 28.898438zm0 0" fill="#e64c3c"/><path d="m182.617188 382.105469v121.234375h-17.355469v-121.234375c.285156-4.582031 4.085937-8.15625 8.679687-8.15625s8.394532 3.574219 8.675782 8.15625zm0 0" fill="#c03a2b"/><path d="m95.839844 330.820312v172.519532h-34.714844v-164.101563c9.191406-4.234375 18.960938-7.070312 28.984375-8.417969zm0 0" fill="#35495e"/><path d="m286.753906 339.238281v164.101563h-34.710937v-172.519532h5.726562c10.027344 1.347657 19.796875 4.183594 28.984375 8.417969zm0 0" fill="#35495e"/><path d="m113.195312 451.269531h-69.425781c-4.792969 0-8.675781-3.882812-8.675781-8.675781s3.882812-8.679688 8.675781-8.679688h69.425781c4.792969 0 8.675782 3.886719 8.675782 8.679688s-3.882813 8.675781-8.675782 8.675781zm0 0" fill="#95a5a5"/><path d="m286.753906 451.269531h-52.066406c-4.792969 0-8.679688-3.882812-8.679688-8.675781s3.886719-8.679688 8.679688-8.679688h52.066406c4.792969 0 8.675782 3.886719 8.675782 8.679688s-3.882813 8.675781-8.675782 8.675781zm0 0" fill="#95a5a5"/><path d="m392.796875 280.003906s43 15.488282 42.445313 61.410156c0 0 43.273437 7.902344 62.882812-46.527343 19.605469-54.429688-18.765625-75.941407-18.765625-75.941407-28.855469 35.726563-71.851563 20.234376-71.851563 20.234376zm0 0" fill="#bdc3c7"/><path d="m402.941406 200.640625c9.015625 3.25 13.695313 13.195313 10.445313 22.210937l-97.058594 269.425782c-3.25 9.015625-13.191406 13.695312-22.210937 10.445312-9.019532-3.25-13.695313-13.191406-10.445313-22.210937l97.058594-269.425781c3.246093-9.015626 13.191406-13.691407 22.210937-10.445313zm0 0" fill="#af8066"/><path d="m350.355469 218.59375 24.492187 8.824219-14.707031 40.820312-24.492187-8.824219c-4.507813-1.625-6.847657-6.597656-5.222657-11.105468l8.824219-24.492188c1.621094-4.507812 6.59375-6.847656 11.105469-5.222656zm0 0" fill="#95a5a5"/><path d="m303.503906 156.394531v.085938c-2.085937 20.480469-12.585937 69.164062-64.480468 69.164062-37.226563 0-27.855469-17.359375-65.082032-17.359375-37.230468 0-27.859375 17.359375-65.085937 17.359375-51.894531 0-62.394531-48.683593-64.476563-69.164062v-.085938c-.027344-.414062.03125-.828125.171875-1.214843l3.992188-19.613282v-.085937c13.363281-30.722657 55.191406-106.480469 125.398437-57.363281 70.203125-49.117188 112.03125 26.640624 125.394532 57.363281v.085937l3.992187 19.351563c.101563.484375.160156.980469.175781 1.476562zm0 0" fill="#fdd7ad"/><path d="m304.109375 167.414062c-.011719 4.117188-.242187 8.230469-.695313 12.324219-6.765624 59.964844-62.132812 106.652344-129.472656 106.652344-67.34375 0-122.707031-46.6875-129.476562-106.652344-.449219-4.09375-.683594-8.207031-.695313-12.324219-.019531-3.652343.183594-7.304687.609375-10.933593 2.082032 20.480469 12.582032 69.164062 64.476563 69.164062 37.226562 0 27.855469-17.359375 65.085937-17.359375 37.226563 0 27.855469 17.359375 65.082032 17.359375 51.894531 0 62.394531-48.683593 64.480468-69.164062.421875 3.628906.625 7.28125.605469 10.933593zm0 0" fill="#af8066"/><path d="m254.367188 335.773438-42.726563 63.082031c-1.484375 2.1875-3.882813 3.582031-6.519531 3.785156-2.632813.203125-5.21875-.804687-7.019532-2.738281l-24.160156-25.953125 23.691406-30.546875 2.339844-3.035156 10.847656-13.972657 6.945313-8.9375c2.304687-2.75 6.070313-3.785156 9.457031-2.605469l22.785156 7.851563c2.554688.878906 4.550782 2.898437 5.40625 5.460937.855469 2.5625.46875 5.375-1.046874 7.609376zm0 0" fill="#c03a2b"/><path d="m173.941406 373.949219-24.164062 25.957031c-1.800782 1.933594-4.386719 2.941406-7.019532 2.738281-2.636718-.203125-5.035156-1.597656-6.519531-3.785156l-42.726562-63.085937c-1.515625-2.234376-1.902344-5.046876-1.046875-7.609376.855468-2.5625 2.851562-4.582031 5.40625-5.460937l22.785156-7.851563c3.390625-1.179687 7.152344-.144531 9.460938 2.605469l6.941406 8.9375 10.847656 13.972657 2.34375 3.035156zm0 0" fill="#c03a2b"/><path d="m498.148438 294.894531c-19.613282 54.410157-62.914063 46.511719-62.914063 46.511719 0-2.515625-.085937-4.945312-.261719-7.289062 48.945313-34.277344 43.304688-74.71875 30.375-102.140626 5.273438-3.625 9.980469-8.011718 13.96875-13.015624 0 0 38.445313 21.519531 18.832032 75.933593zm0 0" fill="#ecf0f1"/></svg>