<svg id="Layer_5" enable-background="new 0 0 64 64" height="512" viewBox="0 0 64 64" width="512" xmlns="http://www.w3.org/2000/svg"><g><g><g><path d="m50.6 50c-.35.19-.73.35-1.12.47l-10.99 3.38c-.32.1-.66.15-1 .15h-.07c-1.89 0-3.42-1.53-3.42-3.42 0-.2.02-.39.05-.58h-4.05-6-8v6.44c.52.23 1.01.57 1.42.98l.01.01 1.12-1.49c.91-1.22 2.35-1.94 3.87-1.94h7.58.34c1.06 0 2.08.42 2.83 1.17l2.24 2.24c.38.38.89.59 1.42.59h6.17c1.1 0 2 .9 2 2 0 .55-.22 1.05-.59 1.41-.36.37-.86.59-1.41.59h19v-12z" fill="#cf9e76"/></g><g><path d="m32 42v4h-2-2v-4z" fill="#ccd1d9"/></g><g><path d="m30 34c2.21 0 4 1.79 4 4v2c0 1.1-.9 2-2 2h-4-1.17c-.53 0-1.04-.21-1.42-.59l-1.41-1.41h-6c-1.1 0-2 .9-2 2v8 6.44c-.62-.29-1.31-.44-2.01-.44-1.83 0-3.51 1.04-4.33 2.68l-1.66 3.32h-6v-24c0-2.21 1.79-4 4-4h18z" fill="#ccd1d9"/></g><g><circle cx="9" cy="41" fill="#fcd770" r="3"/></g><g><circle cx="9" cy="51" fill="#fcd770" r="3"/></g><g><path d="m17.43 57.43 4.57 4.57h-14l1.66-3.32c.82-1.64 2.5-2.68 4.33-2.68.7 0 1.39.15 2.01.44.52.23 1.01.57 1.42.98z" fill="#fc6e51"/></g><g><path d="m43 58c1.1 0 2 .9 2 2 0 .55-.22 1.05-.59 1.41-.36.37-.86.59-1.41.59h-1-20l-4.57-4.57 1.12-1.49c.91-1.22 2.35-1.94 3.87-1.94h7.58.34c1.06 0 2.08.42 2.83 1.17l2.24 2.24c.38.38.89.59 1.42.59z" fill="#ff826e"/></g><g><path d="m54 37v4h-6v-1-3z" fill="#ffc729"/></g><g><path d="m54 34.08v2.92h-6v-9l.99.16c2.89.49 5.01 2.99 5.01 5.92z" fill="#fcd770"/></g><g><path d="m30 28v6h-6c.04-2.9 2.15-5.36 5.01-5.84z" fill="#fcd770"/></g><g><path d="m48 41v3l-11.52 3.29c-.74.21-1.36.65-1.79 1.23-.33.43-.55.94-.64 1.48h-4.05v-4h2v-4c1.1 0 2-.9 2-2v-2c0-2.21-1.79-4-4-4v-6l1-.17 1.66-.27c.58-.1 1.12-.32 1.58-.63l.26 2.1c.14 1.13.7 2.13 1.5 2.84s1.86 1.13 3 1.13c2.29 0 4.21-1.7 4.5-3.97l.26-2.1c.46.31 1 .53 1.58.63l1.66.27 1 .17v9 3z" fill="#fcd770"/></g><g><path d="m43.76 26.93c-1.07-.73-1.76-1.95-1.76-3.32v-1.21c2.36-1.07 4-3.44 4-6.19v-2.09c0-1.17-.95-2.12-2.12-2.12h-4c-.56 0-1.1-.22-1.5-.62l-1.38-1.38-1.38 1.38c-.4.4-.94.62-1.5.62-1.17 0-2.12.95-2.12 2.12v1.88c0 2.78 1.63 5.19 4 6.32v1.29c0 1.37-.69 2.59-1.76 3.32-.46.31-1 .53-1.58.63l-1.66.27-.93-.15c-2.47-.41-4.46-2.25-5.07-4.68.96-.96 1.71-2.09 2.22-3.32.51-1.24.78-2.56.78-3.92v-2.76c0-6.08 4.92-11 11-11 3.04 0 5.79 1.23 7.78 3.22s3.22 4.74 3.22 7.78v2.76c0 2.71 1.08 5.32 3 7.24-.3 1.22-.96 2.28-1.84 3.1-.88.81-2 1.38-3.23 1.58l-.93.15-1.66-.27c-.58-.1-1.12-.32-1.58-.63z" fill="#656d78"/></g><g><path d="m48 44v-3h6v3.35c0 1.7-.67 3.32-1.88 4.53-.45.45-.96.82-1.52 1.12-.35.19-.73.35-1.12.47l-10.99 3.38c-.32.1-.66.15-1 .15h-.07c-1.89 0-3.42-1.53-3.42-3.42 0-.2.02-.39.05-.58.09-.54.31-1.05.64-1.48.43-.58 1.05-1.02 1.79-1.23z" fill="#f0d0b4"/></g><g><path d="m26.83 42h1.17v4h2v4h-6v-10l1.41 1.41c.38.38.89.59 1.42.59z" fill="#f0d0b4"/></g><g><path d="m43.76 26.93-.26 2.1c-.29 2.27-2.21 3.97-4.5 3.97-1.14 0-2.2-.42-3-1.13s-1.36-1.71-1.5-2.84l-.26-2.1c1.07-.73 1.76-1.95 1.76-3.32v-1.29c.92.44 1.94.68 3.03.68h.18c.99 0 1.94-.21 2.79-.6v1.21c0 1.37.69 2.59 1.76 3.32z" fill="#f0d0b4"/></g><g><path d="m46 14.12v2.09c0 2.75-1.64 5.12-4 6.19-.85.39-1.8.6-2.79.6h-.18c-1.09 0-2.11-.24-3.03-.68-2.37-1.13-4-3.54-4-6.32 0-.68 0-1.32 0-1.88 0-1.17.95-2.12 2.12-2.12.56 0 1.1-.22 1.5-.62l1.38-1.38 1.38 1.38c.4.4.94.62 1.5.62h4c1.17 0 2.12.95 2.12 2.12z" fill="#f0d0b4"/></g></g><g><path d="m53.354 49c1.066-1.313 1.646-2.938 1.646-4.652v-10.265c0-2.868-1.717-5.36-4.255-6.435 1.574-.981 2.757-2.535 3.224-4.405l.138-.549-.4-.4c-1.746-1.747-2.707-4.068-2.707-6.537v-2.757c0-6.617-5.383-12-12-12s-12 5.383-12 12v2.757c0 2.469-.961 4.79-2.707 6.536l-.4.4.138.549c.47 1.878 1.66 3.436 3.245 4.417-2.209.936-3.799 2.941-4.173 5.341h-17.103c-2.757 0-5 2.243-5 5v25h41 1 20v-14zm-20.048 0h-2.306v-2h2v-4.184c1.161-.414 2-1.514 2-2.816v-2c0-2.414-1.721-4.434-4-4.899v-4.254l1.821-.304c.206-.034.399-.097.595-.154l.096.766c.344 2.762 2.704 4.845 5.488 4.845s5.144-2.083 5.488-4.845l.096-.766c.195.058.389.12.595.154l1.821.304v11.153 2 1.246l-10.794 3.084c-1.356.387-2.409 1.403-2.9 2.67zm-4.306 4h-6.578c-1.829 0-3.577.874-4.675 2.337l-.492.656c-.083-.056-.169-.104-.255-.156v-4.837h12zm-12.288 5.126 2.874 2.874h-9.968l.938-1.875c.655-1.311 1.972-2.125 3.437-2.125 1.028 0 1.993.4 2.719 1.126zm6.288-9.126h-6v-7c0-.551.448-1 1-1h5zm2 0v-6.638c.523.407 1.155.638 1.828.638h.172v4h2v2zm4-4v-2h2v2zm7.328-32.914.672-.672.672.672c.581.581 1.385.914 2.207.914h4c.618 0 1.121.503 1.121 1.121v2.088c0 3.193-2.598 5.791-5.79 5.791h-.176c-3.327 0-6.034-2.692-6.034-6.002v-1.879c0-.617.503-1.119 1.121-1.119.822 0 1.626-.333 2.207-.914zm2.706 11.914h.176c.622 0 1.225-.081 1.805-.22.048 1.418.677 2.694 1.683 3.579l-.194 1.548c-.221 1.763-1.727 3.093-3.504 3.093s-3.283-1.33-3.504-3.093l-.194-1.548c1.019-.896 1.654-2.192 1.687-3.632.655.172 1.338.273 2.045.273zm9.966 14h4v2h-4zm-12.245 10.253 10.954-3.13 1.584 1.584 1.414-1.414-1.707-1.707v-1.586h4v2.348c0 1.443-.562 2.8-1.582 3.82-.622.622-1.394 1.086-2.232 1.344l-10.99 3.381c-.229.071-.468.107-.776.107-1.334 0-2.42-1.086-2.42-2.42 0-1.075.722-2.032 1.755-2.327zm16.245-14.17v1.917h-4v-6.803c2.326.475 4 2.494 4 4.886zm-26.875-10.816c1.858-2.066 2.875-4.71 2.875-7.51v-2.757c0-5.514 4.486-10 10-10s10 4.486 10 10v2.757c0 2.8 1.017 5.443 2.875 7.509-.644 1.788-2.205 3.108-4.106 3.425l-.769.128-1.492-.249c-1.453-.241-2.508-1.486-2.508-2.959v-.601c2.383-1.334 4-3.881 4-6.801v-2.088c0-1.721-1.4-3.121-3.121-3.121h-4c-.295 0-.584-.12-.793-.328l-1.086-1.086v-3.586h-2v3.586l-1.086 1.086c-.209.208-.498.328-.793.328-1.721 0-3.121 1.399-3.121 3.119v1.879c0 2.947 1.612 5.52 4 6.909v.705c0 1.473-1.055 2.717-2.507 2.959l-1.492.249-.769-.128c-1.902-.317-3.463-1.637-4.107-3.425zm2.875 5.93v3.803h-3.872c.42-1.898 1.917-3.403 3.872-3.803zm-26 8.803c0-1.654 1.346-3 3-3h24c1.654 0 3 1.346 3 3v2c0 .551-.448 1-1 1h-5.172c-.263 0-.521-.107-.707-.293l-1.707-1.707h-6.414c-1.654 0-3 1.346-3 3v13.091c-.33-.057-.665-.091-1.007-.091-2.228 0-4.23 1.238-5.227 3.23l-1.384 2.77h-4.382zm39 23h-19.586l-3.665-3.665.598-.797c.722-.963 1.872-1.538 3.075-1.538h7.921c.802 0 1.556.312 2.122.878l2.242 2.243c.566.567 1.32.879 2.121.879h6.172c.552 0 1 .449 1 1s-.448 1-1 1zm19 0h-15.184c.112-.314.184-.648.184-1 0-1.654-1.346-3-3-3h-6.172c-.263 0-.521-.107-.707-.293l-2.242-2.243c-.787-.787-1.794-1.258-2.879-1.4v-2.064h2.043c.215 2.238 2.088 4 4.443 4 .443 0 .881-.066 1.3-.196l10.988-3.38c.361-.111.708-.259 1.047-.424h10.179z"/><path d="m9 45c2.206 0 4-1.794 4-4s-1.794-4-4-4-4 1.794-4 4 1.794 4 4 4zm0-6c1.103 0 2 .897 2 2s-.897 2-2 2-2-.897-2-2 .897-2 2-2z"/><path d="m9 55c2.206 0 4-1.794 4-4s-1.794-4-4-4-4 1.794-4 4 1.794 4 4 4zm0-6c1.103 0 2 .897 2 2s-.897 2-2 2-2-.897-2-2 .897-2 2-2z"/><circle cx="30" cy="38" r="1"/><path d="m57 57h2v2h-2z"/><path d="m57 53h2v2h-2z"/></g></g></svg>